<mxfile host="app.diagrams.net" modified="2021-01-11T12:39:52.999Z" agent="5.0 (Windows NT 10.0; Win64; x64) AppleWebKit/537.36 (KHTML, like Gecko) Chrome/87.0.4280.141 Safari/537.36" etag="QvymmPrJ8UEq07KEYj3k" version="14.1.9" type="github">
  <diagram id="C5RBs43oDa-KdzZeNtuy" name="Page-1">
    <mxGraphModel dx="1038" dy="548" grid="1" gridSize="10" guides="1" tooltips="1" connect="1" arrows="1" fold="1" page="1" pageScale="1" pageWidth="827" pageHeight="1169" math="0" shadow="0">
      <root>
        <mxCell id="WIyWlLk6GJQsqaUBKTNV-0" />
        <mxCell id="WIyWlLk6GJQsqaUBKTNV-1" parent="WIyWlLk6GJQsqaUBKTNV-0" />
        <mxCell id="WIyWlLk6GJQsqaUBKTNV-2" value="" style="rounded=0;html=1;jettySize=auto;orthogonalLoop=1;fontSize=11;endArrow=block;endFill=0;endSize=8;strokeWidth=1;shadow=0;labelBackgroundColor=none;edgeStyle=orthogonalEdgeStyle;" parent="WIyWlLk6GJQsqaUBKTNV-1" source="WIyWlLk6GJQsqaUBKTNV-3" edge="1">
          <mxGeometry relative="1" as="geometry">
            <mxPoint x="220" y="170" as="targetPoint" />
          </mxGeometry>
        </mxCell>
        <mxCell id="WIyWlLk6GJQsqaUBKTNV-3" value="สมัครสมาชิก" style="rounded=1;whiteSpace=wrap;html=1;fontSize=12;glass=0;strokeWidth=1;shadow=0;" parent="WIyWlLk6GJQsqaUBKTNV-1" vertex="1">
          <mxGeometry x="160" y="80" width="120" height="40" as="geometry" />
        </mxCell>
        <mxCell id="TOz1gJrkt05zks3sc1Wx-9" value="" style="edgeStyle=orthogonalEdgeStyle;rounded=0;orthogonalLoop=1;jettySize=auto;html=1;" edge="1" parent="WIyWlLk6GJQsqaUBKTNV-1" source="TOz1gJrkt05zks3sc1Wx-0" target="TOz1gJrkt05zks3sc1Wx-8">
          <mxGeometry relative="1" as="geometry" />
        </mxCell>
        <mxCell id="TOz1gJrkt05zks3sc1Wx-0" value="เข้าสู่ระบบ" style="rounded=1;whiteSpace=wrap;html=1;" vertex="1" parent="WIyWlLk6GJQsqaUBKTNV-1">
          <mxGeometry x="160" y="170" width="120" height="60" as="geometry" />
        </mxCell>
        <mxCell id="TOz1gJrkt05zks3sc1Wx-4" value="" style="edgeStyle=elbowEdgeStyle;elbow=vertical;endArrow=classic;html=1;exitX=1;exitY=0.5;exitDx=0;exitDy=0;entryX=1;entryY=0.5;entryDx=0;entryDy=0;" edge="1" parent="WIyWlLk6GJQsqaUBKTNV-1" source="TOz1gJrkt05zks3sc1Wx-0" target="WIyWlLk6GJQsqaUBKTNV-3">
          <mxGeometry width="50" height="50" relative="1" as="geometry">
            <mxPoint x="310" y="200" as="sourcePoint" />
            <mxPoint x="360" y="150" as="targetPoint" />
            <Array as="points">
              <mxPoint x="360" y="150" />
            </Array>
          </mxGeometry>
        </mxCell>
        <mxCell id="TOz1gJrkt05zks3sc1Wx-6" value="ไม่ผ่าน" style="text;html=1;strokeColor=none;fillColor=none;align=center;verticalAlign=middle;whiteSpace=wrap;rounded=0;" vertex="1" parent="WIyWlLk6GJQsqaUBKTNV-1">
          <mxGeometry x="300" y="170" width="40" height="20" as="geometry" />
        </mxCell>
        <mxCell id="TOz1gJrkt05zks3sc1Wx-12" value="" style="edgeStyle=orthogonalEdgeStyle;rounded=0;orthogonalLoop=1;jettySize=auto;html=1;" edge="1" parent="WIyWlLk6GJQsqaUBKTNV-1" source="TOz1gJrkt05zks3sc1Wx-8" target="TOz1gJrkt05zks3sc1Wx-11">
          <mxGeometry relative="1" as="geometry" />
        </mxCell>
        <mxCell id="TOz1gJrkt05zks3sc1Wx-8" value="หน้าโฮม/index" style="whiteSpace=wrap;html=1;rounded=1;" vertex="1" parent="WIyWlLk6GJQsqaUBKTNV-1">
          <mxGeometry x="160" y="310" width="120" height="60" as="geometry" />
        </mxCell>
        <mxCell id="TOz1gJrkt05zks3sc1Wx-10" value="ผ่าน" style="text;html=1;strokeColor=none;fillColor=none;align=center;verticalAlign=middle;whiteSpace=wrap;rounded=0;" vertex="1" parent="WIyWlLk6GJQsqaUBKTNV-1">
          <mxGeometry x="170" y="140" width="40" height="20" as="geometry" />
        </mxCell>
        <mxCell id="TOz1gJrkt05zks3sc1Wx-16" value="" style="edgeStyle=orthogonalEdgeStyle;rounded=0;orthogonalLoop=1;jettySize=auto;html=1;" edge="1" parent="WIyWlLk6GJQsqaUBKTNV-1" source="TOz1gJrkt05zks3sc1Wx-11" target="TOz1gJrkt05zks3sc1Wx-15">
          <mxGeometry relative="1" as="geometry" />
        </mxCell>
        <mxCell id="TOz1gJrkt05zks3sc1Wx-11" value="ภาพยนต์" style="whiteSpace=wrap;html=1;rounded=1;" vertex="1" parent="WIyWlLk6GJQsqaUBKTNV-1">
          <mxGeometry x="160" y="450" width="120" height="60" as="geometry" />
        </mxCell>
        <mxCell id="TOz1gJrkt05zks3sc1Wx-24" value="" style="edgeStyle=orthogonalEdgeStyle;rounded=0;orthogonalLoop=1;jettySize=auto;html=1;" edge="1" parent="WIyWlLk6GJQsqaUBKTNV-1" source="TOz1gJrkt05zks3sc1Wx-15" target="TOz1gJrkt05zks3sc1Wx-23">
          <mxGeometry relative="1" as="geometry" />
        </mxCell>
        <mxCell id="TOz1gJrkt05zks3sc1Wx-15" value="เลือกหนังที่จะดู/เลือกสถานที่" style="whiteSpace=wrap;html=1;rounded=1;" vertex="1" parent="WIyWlLk6GJQsqaUBKTNV-1">
          <mxGeometry x="160" y="590" width="120" height="60" as="geometry" />
        </mxCell>
        <mxCell id="TOz1gJrkt05zks3sc1Wx-19" value="สถานที่เต็ม" style="text;html=1;align=center;verticalAlign=middle;resizable=0;points=[];autosize=1;" vertex="1" parent="WIyWlLk6GJQsqaUBKTNV-1">
          <mxGeometry x="295" y="600" width="70" height="20" as="geometry" />
        </mxCell>
        <mxCell id="TOz1gJrkt05zks3sc1Wx-22" value="" style="edgeStyle=elbowEdgeStyle;elbow=vertical;endArrow=classic;html=1;exitX=1;exitY=0.5;exitDx=0;exitDy=0;entryX=1;entryY=0.25;entryDx=0;entryDy=0;" edge="1" parent="WIyWlLk6GJQsqaUBKTNV-1" source="TOz1gJrkt05zks3sc1Wx-15" target="TOz1gJrkt05zks3sc1Wx-8">
          <mxGeometry width="50" height="50" relative="1" as="geometry">
            <mxPoint x="370" y="570" as="sourcePoint" />
            <mxPoint x="420" y="520" as="targetPoint" />
            <Array as="points">
              <mxPoint x="390" y="480" />
            </Array>
          </mxGeometry>
        </mxCell>
        <mxCell id="TOz1gJrkt05zks3sc1Wx-27" value="" style="edgeStyle=orthogonalEdgeStyle;rounded=0;orthogonalLoop=1;jettySize=auto;html=1;" edge="1" parent="WIyWlLk6GJQsqaUBKTNV-1" source="TOz1gJrkt05zks3sc1Wx-23" target="TOz1gJrkt05zks3sc1Wx-26">
          <mxGeometry relative="1" as="geometry" />
        </mxCell>
        <mxCell id="TOz1gJrkt05zks3sc1Wx-23" value="เลือกรอบที่จะดู" style="whiteSpace=wrap;html=1;rounded=1;" vertex="1" parent="WIyWlLk6GJQsqaUBKTNV-1">
          <mxGeometry x="160" y="730" width="120" height="60" as="geometry" />
        </mxCell>
        <mxCell id="TOz1gJrkt05zks3sc1Wx-29" value="" style="edgeStyle=orthogonalEdgeStyle;rounded=0;orthogonalLoop=1;jettySize=auto;html=1;" edge="1" parent="WIyWlLk6GJQsqaUBKTNV-1" source="TOz1gJrkt05zks3sc1Wx-26" target="TOz1gJrkt05zks3sc1Wx-28">
          <mxGeometry relative="1" as="geometry" />
        </mxCell>
        <mxCell id="TOz1gJrkt05zks3sc1Wx-26" value="เลือกที่นั่ง" style="whiteSpace=wrap;html=1;rounded=1;" vertex="1" parent="WIyWlLk6GJQsqaUBKTNV-1">
          <mxGeometry x="160" y="870" width="120" height="60" as="geometry" />
        </mxCell>
        <mxCell id="TOz1gJrkt05zks3sc1Wx-32" value="" style="edgeStyle=orthogonalEdgeStyle;rounded=0;orthogonalLoop=1;jettySize=auto;html=1;" edge="1" parent="WIyWlLk6GJQsqaUBKTNV-1" source="TOz1gJrkt05zks3sc1Wx-28" target="TOz1gJrkt05zks3sc1Wx-31">
          <mxGeometry relative="1" as="geometry" />
        </mxCell>
        <mxCell id="TOz1gJrkt05zks3sc1Wx-28" value="ชำระเงิน" style="whiteSpace=wrap;html=1;rounded=1;" vertex="1" parent="WIyWlLk6GJQsqaUBKTNV-1">
          <mxGeometry x="160" y="1010" width="120" height="60" as="geometry" />
        </mxCell>
        <mxCell id="TOz1gJrkt05zks3sc1Wx-31" value="เสร็จสิ้น/รอดูหนัง" style="whiteSpace=wrap;html=1;rounded=1;" vertex="1" parent="WIyWlLk6GJQsqaUBKTNV-1">
          <mxGeometry x="160" y="1150" width="120" height="60" as="geometry" />
        </mxCell>
        <mxCell id="TOz1gJrkt05zks3sc1Wx-35" style="edgeStyle=orthogonalEdgeStyle;rounded=0;orthogonalLoop=1;jettySize=auto;html=1;exitX=0;exitY=0.5;exitDx=0;exitDy=0;entryX=0;entryY=0.25;entryDx=0;entryDy=0;" edge="1" parent="WIyWlLk6GJQsqaUBKTNV-1" source="TOz1gJrkt05zks3sc1Wx-26" target="TOz1gJrkt05zks3sc1Wx-23">
          <mxGeometry relative="1" as="geometry">
            <mxPoint x="40" y="680" as="targetPoint" />
            <Array as="points">
              <mxPoint x="100" y="900" />
              <mxPoint x="100" y="745" />
            </Array>
          </mxGeometry>
        </mxCell>
        <mxCell id="TOz1gJrkt05zks3sc1Wx-33" value="ที่นั่งเต็ม" style="text;html=1;align=center;verticalAlign=middle;resizable=0;points=[];autosize=1;" vertex="1" parent="WIyWlLk6GJQsqaUBKTNV-1">
          <mxGeometry x="100" y="880" width="60" height="20" as="geometry" />
        </mxCell>
      </root>
    </mxGraphModel>
  </diagram>
</mxfile>
